<svg xmlns="http://www.w3.org/2000/svg" version="1.1" xmlns:xlink="http://www.w3.org/1999/xlink" xmlns:svgjs="http://svgjs.dev/svgjs" width="2000" height="424" viewBox="0 0 2000 424"><g transform="matrix(1,0,0,1,-1.2119732599724102,1.0048697212893387)"><svg viewBox="0 0 396 84" data-background-color="#f8f8f8" preserveAspectRatio="xMidYMid meet" height="424" width="2000" xmlns="http://www.w3.org/2000/svg" xmlns:xlink="http://www.w3.org/1999/xlink"><g id="tight-bounds" transform="matrix(1,0,0,1,0.23997070547454769,-0.19907796365166064)"><svg viewBox="0 0 395.52 84.39814170846758" height="84.39814170846758" width="395.52"><g><svg viewBox="0 0 540.059953083363 115.24083851991813" height="84.39814170846758" width="395.52"><g transform="matrix(1,0,0,1,144.53995308336303,0)"><svg viewBox="0 0 395.52 115.24083851991813" height="115.24083851991813" width="395.52"><g id="textblocktransform"><svg viewBox="0 0 395.52 115.24083851991813" height="115.24083851991813" width="395.52" id="textblock"><g><svg viewBox="0 0 395.52 115.24083851991813" height="115.24083851991813" width="395.52"><path d="M394.594 24.717C392.735 12.755 387.435 9.43 387.435 9.43 371.165-2.891 350.86-0.236 332.619 1.535 300.414 1.606 268.339 4.238 236.208 5.65 168.767 5.865 100.749 2.324 33.643 11.056 27.339 13.736-6.54 11.583 1.121 26.248 3.129 32.349 10.456 39.119 10.232 44.717 11.236 45.698 12.631 43.449 13.226 44.861 15.309 48.665 18.711 46.871 21.501 49.119 17.614 55.124 20.403 60.124 23.062 65.364 18.377 66.727 12.371 66.081 9.675 70.603 9.396 73.881 7.89 73.259 6.235 73.115 5.026 73.019 2.59 73.378 2.999 74.407 4.394 77.924-1.594 79.957 2.162 83.402-0.422 87.134 3.948 90.364 3.353 94.407 3.278 95.221 3.687 95.915 4.338 96.106 7.22 97.135 3.018 99.144 3.464 101.321 33.029 116.202 65.104 105.915 95.394 112.757 103.259 107.972 97.346 114.456 100.489 113.451 102.943 112.278 104.728 117.135 107.499 114.384 107.927 113.594 107.276 111.728 108.8 112.087 109.6 112.278 110.307 112.231 110.418 111.13 110.586 109.479 109.117 110.508 108.726 109.647 112.947 105.293 111.906 115.652 115.866 115.221 115.68 113.953 114.528 112.135 116.889 112.374 119.232 110.556 119.306 109.049 121.389 113.14 121.463 114.025 121.835 114.647 122.43 115.078 128.938 110.628 135.409 116.657 142.233 114.647 146.417 112.446 150.433 115.843 154.672 115.006 156.16 114.336 157.666 113.14 159.098 115.149 176.632 115.58 195.319 113.786 211.943 115.221 256.364 112.542 303.836 116.322 350.674 112.781 361.719 111.417 373.192 109.479 383.958 107.924 383.958 107.924 392.679 103.666 392.679 84.527S394.538 67.78 394.817 52.54C395.096 37.301 396.398 36.679 394.538 24.717Z" opacity="1" fill="#295249" data-fill-palette-color="tertiary"></path><g transform="matrix(1,0,0,1,55.76832,26.23066666666667)"><svg width="283.98335999999995" viewBox="4.38 -31.88 147 32.51" height="62.779505186584785" data-palette-color="#f8f8f8"><path d="M8.33 0L4.38 0 4.38-31.25 12.12-31.25Q15.21-31.25 17.34-30.31 19.48-29.38 20.8-27.86 22.12-26.35 22.73-24.58 23.33-22.81 23.33-21.11L23.33-21.11Q23.33-19.44 22.74-17.67 22.15-15.9 20.83-14.38 19.51-12.85 17.36-11.91 15.21-10.97 12.12-10.97L12.12-10.97 8.33-10.97 8.33 0ZM8.33-27.71L8.33-14.51 11.91-14.51Q14.72-14.51 16.35-15.5 17.99-16.49 18.68-18 19.38-19.51 19.38-21.11L19.38-21.11Q19.38-22.64 18.7-24.17 18.02-25.69 16.41-26.7 14.79-27.71 11.91-27.71L11.91-27.71 8.33-27.71ZM33.75 0L29.79 0 29.79-31.25 33.75-31.25 33.75 0ZM56.94 0.63L56.94 0.63Q53.57 0.63 50.6-0.64 47.63-1.91 45.39-4.13 43.15-6.35 41.89-9.31 40.62-12.26 40.62-15.63L40.62-15.63Q40.62-18.99 41.89-21.94 43.15-24.9 45.39-27.12 47.63-29.34 50.6-30.61 53.57-31.88 56.94-31.88L56.94-31.88Q60.27-31.88 63.19-30.64 66.11-29.41 68.33-27.26L68.33-27.26 67.18-22.47Q65.59-25.03 62.89-26.58 60.2-28.13 56.94-28.13L56.94-28.13Q53.5-28.13 50.74-26.44 47.98-24.76 46.35-21.93 44.72-19.1 44.72-15.63L44.72-15.63Q44.72-12.19 46.35-9.34 47.98-6.49 50.74-4.81 53.5-3.13 56.94-3.13L56.94-3.13Q60.24-3.13 62.91-4.69 65.59-6.25 67.18-8.78L67.18-8.78 68.33-3.99Q66.11-1.88 63.19-0.63 60.27 0.63 56.94 0.63ZM80.9 0.42L80.9 0.42Q78.12 0.42 75.88-0.69 73.64-1.81 72.32-3.4L72.32-3.4 73.46-8.19Q74.44-6.25 76.38-4.69 78.33-3.13 81.03-3.13L81.03-3.13Q83.5-3.13 85.11-4.69 86.73-6.25 86.73-8.54L86.73-8.54Q86.73-10.21 85.93-11.28 85.13-12.36 84.12-12.99 83.12-13.61 82.53-13.89L82.53-13.89 78.71-15.83Q77.8-16.32 76.47-17.19 75.13-18.06 74.12-19.58 73.12-21.11 73.12-23.54L73.12-23.54Q73.12-25.9 74.21-27.74 75.3-29.58 77.27-30.63 79.23-31.67 81.76-31.67L81.76-31.67Q84.26-31.67 86.17-30.78 88.08-29.9 89.16-28.96L89.16-28.96 88.01-24.17Q87.15-25.63 85.44-26.91 83.74-28.19 81.59-28.19L81.59-28.19Q79.51-28.19 78.26-26.96 77.01-25.73 77.01-23.92L77.01-23.92Q77.01-22.53 77.65-21.63 78.29-20.73 79.11-20.21 79.92-19.69 80.44-19.41L80.44-19.41 84.33-17.47Q85.03-17.12 86.09-16.49 87.15-15.87 88.19-14.84 89.23-13.82 89.92-12.34 90.62-10.87 90.62-8.78L90.62-8.78Q90.62-6.11 89.35-4.03 88.08-1.94 85.9-0.76 83.71 0.42 80.9 0.42ZM102.7-27.71L94.37-27.71 94.37-31.25 114.99-31.25 114.99-27.71 106.66-27.71 106.66 0 102.7 0 102.7-27.71ZM135.06 0.63L135.06 0.63Q131.69 0.63 128.72-0.64 125.75-1.91 123.51-4.13 121.27-6.35 120-9.31 118.74-12.26 118.74-15.63L118.74-15.63Q118.74-18.99 120-21.94 121.27-24.9 123.51-27.12 125.75-29.34 128.72-30.61 131.69-31.88 135.06-31.88L135.06-31.88Q138.46-31.88 141.41-30.61 144.36-29.34 146.6-27.12 148.84-24.9 150.11-21.94 151.38-18.99 151.38-15.63L151.38-15.63Q151.38-12.26 150.11-9.31 148.84-6.35 146.6-4.13 144.36-1.91 141.41-0.64 138.46 0.63 135.06 0.63ZM135.06-3.13L135.06-3.13Q138.49-3.13 141.27-4.81 144.05-6.49 145.66-9.34 147.28-12.19 147.28-15.63L147.28-15.63Q147.28-19.1 145.66-21.93 144.05-24.76 141.27-26.44 138.49-28.13 135.06-28.13L135.06-28.13Q131.62-28.13 128.86-26.44 126.1-24.76 124.47-21.93 122.83-19.1 122.83-15.63L122.83-15.63Q122.83-12.19 124.47-9.34 126.1-6.49 128.86-4.81 131.62-3.13 135.06-3.13Z" opacity="1" transform="matrix(1,0,0,1,0,0)" fill="#f8f8f8" class="wordmark-text-0" data-fill-palette-color="quaternary" id="text-0"></path></svg></g></svg></g></svg></g></svg></g><g transform="matrix(1,0,0,1,0,4.532806315116773)"><svg viewBox="0 0 129.71921861693485 106.17522588968458" height="106.17522588968458" width="129.71921861693485"><g><svg xmlns="http://www.w3.org/2000/svg" xmlns:xlink="http://www.w3.org/1999/xlink" version="1.1" x="0" y="0" viewBox="-10.131999999999998 16.544000000000004 84.19300000000001 68.912" enable-background="new -17.283 10 100 80" xml:space="preserve" height="106.17522588968458" width="129.71921861693485" class="icon-icon-0" data-fill-palette-color="accent" id="icon-0"></svg></g></svg></g></svg></g><defs></defs><mask id="1099db61-29af-4ac2-9c4c-38c3ce31e664"><g id="SvgjsG2791"><svg viewBox="0 0 395.52 84.39814170846758" height="84.39814170846758" width="395.52"><g><svg viewBox="0 0 540.059953083363 115.24083851991813" height="84.39814170846758" width="395.52"><g transform="matrix(1,0,0,1,144.53995308336303,0)"><svg viewBox="0 0 395.52 115.24083851991813" height="115.24083851991813" width="395.52"><g id="SvgjsG2790"><svg viewBox="0 0 395.52 115.24083851991813" height="115.24083851991813" width="395.52" id="SvgjsSvg2789"><g><svg viewBox="0 0 395.52 115.24083851991813" height="115.24083851991813" width="395.52"><path d="M394.594 24.717C392.735 12.755 387.435 9.43 387.435 9.43 371.165-2.891 350.86-0.236 332.619 1.535 300.414 1.606 268.339 4.238 236.208 5.65 168.767 5.865 100.749 2.324 33.643 11.056 27.339 13.736-6.54 11.583 1.121 26.248 3.129 32.349 10.456 39.119 10.232 44.717 11.236 45.698 12.631 43.449 13.226 44.861 15.309 48.665 18.711 46.871 21.501 49.119 17.614 55.124 20.403 60.124 23.062 65.364 18.377 66.727 12.371 66.081 9.675 70.603 9.396 73.881 7.89 73.259 6.235 73.115 5.026 73.019 2.59 73.378 2.999 74.407 4.394 77.924-1.594 79.957 2.162 83.402-0.422 87.134 3.948 90.364 3.353 94.407 3.278 95.221 3.687 95.915 4.338 96.106 7.22 97.135 3.018 99.144 3.464 101.321 33.029 116.202 65.104 105.915 95.394 112.757 103.259 107.972 97.346 114.456 100.489 113.451 102.943 112.278 104.728 117.135 107.499 114.384 107.927 113.594 107.276 111.728 108.8 112.087 109.6 112.278 110.307 112.231 110.418 111.13 110.586 109.479 109.117 110.508 108.726 109.647 112.947 105.293 111.906 115.652 115.866 115.221 115.68 113.953 114.528 112.135 116.889 112.374 119.232 110.556 119.306 109.049 121.389 113.14 121.463 114.025 121.835 114.647 122.43 115.078 128.938 110.628 135.409 116.657 142.233 114.647 146.417 112.446 150.433 115.843 154.672 115.006 156.16 114.336 157.666 113.14 159.098 115.149 176.632 115.58 195.319 113.786 211.943 115.221 256.364 112.542 303.836 116.322 350.674 112.781 361.719 111.417 373.192 109.479 383.958 107.924 383.958 107.924 392.679 103.666 392.679 84.527S394.538 67.78 394.817 52.54C395.096 37.301 396.398 36.679 394.538 24.717Z" opacity="1" fill="black"></path><g transform="matrix(1,0,0,1,55.76832,26.23066666666667)"><svg width="283.98335999999995" viewBox="4.38 -31.88 147 32.51" height="62.779505186584785" data-palette-color="#f8f8f8"><path d="M8.33 0L4.38 0 4.38-31.25 12.12-31.25Q15.21-31.25 17.34-30.31 19.48-29.38 20.8-27.86 22.12-26.35 22.73-24.58 23.33-22.81 23.33-21.11L23.33-21.11Q23.33-19.44 22.74-17.67 22.15-15.9 20.83-14.38 19.51-12.85 17.36-11.91 15.21-10.97 12.12-10.97L12.12-10.97 8.33-10.97 8.33 0ZM8.33-27.71L8.33-14.51 11.91-14.51Q14.72-14.51 16.35-15.5 17.99-16.49 18.68-18 19.38-19.51 19.38-21.11L19.38-21.11Q19.38-22.64 18.7-24.17 18.02-25.69 16.41-26.7 14.79-27.71 11.91-27.71L11.91-27.71 8.33-27.71ZM33.75 0L29.79 0 29.79-31.25 33.75-31.25 33.75 0ZM56.94 0.63L56.94 0.63Q53.57 0.63 50.6-0.64 47.63-1.91 45.39-4.13 43.15-6.35 41.89-9.31 40.62-12.26 40.62-15.63L40.62-15.63Q40.62-18.99 41.89-21.94 43.15-24.9 45.39-27.12 47.63-29.34 50.6-30.61 53.57-31.88 56.94-31.88L56.94-31.88Q60.27-31.88 63.19-30.64 66.11-29.41 68.33-27.26L68.33-27.26 67.18-22.47Q65.59-25.03 62.89-26.58 60.2-28.13 56.94-28.13L56.94-28.13Q53.5-28.13 50.74-26.44 47.98-24.76 46.35-21.93 44.72-19.1 44.72-15.63L44.72-15.63Q44.72-12.19 46.35-9.34 47.98-6.49 50.74-4.81 53.5-3.13 56.94-3.13L56.94-3.13Q60.24-3.13 62.91-4.69 65.59-6.25 67.18-8.78L67.18-8.78 68.33-3.99Q66.11-1.88 63.19-0.63 60.27 0.63 56.94 0.63ZM80.9 0.42L80.9 0.42Q78.12 0.42 75.88-0.69 73.64-1.81 72.32-3.4L72.32-3.4 73.46-8.19Q74.44-6.25 76.38-4.69 78.33-3.13 81.03-3.13L81.03-3.13Q83.5-3.13 85.11-4.69 86.73-6.25 86.73-8.54L86.73-8.54Q86.73-10.21 85.93-11.28 85.13-12.36 84.12-12.99 83.12-13.61 82.53-13.89L82.53-13.89 78.71-15.83Q77.8-16.32 76.47-17.19 75.13-18.06 74.12-19.58 73.12-21.11 73.12-23.54L73.12-23.54Q73.12-25.9 74.21-27.74 75.3-29.58 77.27-30.63 79.23-31.67 81.76-31.67L81.76-31.67Q84.26-31.67 86.17-30.78 88.08-29.9 89.16-28.96L89.16-28.96 88.01-24.17Q87.15-25.63 85.44-26.91 83.74-28.19 81.59-28.19L81.59-28.19Q79.51-28.19 78.26-26.96 77.01-25.73 77.01-23.92L77.01-23.92Q77.01-22.53 77.65-21.63 78.29-20.73 79.11-20.21 79.92-19.69 80.44-19.41L80.44-19.41 84.33-17.47Q85.03-17.12 86.09-16.49 87.15-15.87 88.19-14.84 89.23-13.82 89.92-12.34 90.62-10.87 90.62-8.78L90.62-8.78Q90.62-6.11 89.35-4.03 88.08-1.94 85.9-0.76 83.71 0.42 80.9 0.42ZM102.7-27.71L94.37-27.71 94.37-31.25 114.99-31.25 114.99-27.71 106.66-27.71 106.66 0 102.7 0 102.7-27.71ZM135.06 0.63L135.06 0.63Q131.69 0.63 128.72-0.64 125.75-1.91 123.51-4.13 121.27-6.35 120-9.31 118.74-12.26 118.74-15.63L118.74-15.63Q118.74-18.99 120-21.94 121.27-24.9 123.51-27.12 125.75-29.34 128.72-30.61 131.69-31.88 135.06-31.88L135.06-31.88Q138.46-31.88 141.41-30.61 144.36-29.34 146.6-27.12 148.84-24.9 150.11-21.94 151.38-18.99 151.38-15.63L151.38-15.63Q151.38-12.26 150.11-9.31 148.84-6.35 146.6-4.13 144.36-1.91 141.41-0.64 138.46 0.63 135.06 0.63ZM135.06-3.13L135.06-3.13Q138.49-3.13 141.27-4.81 144.05-6.49 145.66-9.34 147.28-12.19 147.28-15.63L147.28-15.63Q147.28-19.1 145.66-21.93 144.05-24.76 141.27-26.44 138.49-28.13 135.06-28.13L135.06-28.13Q131.62-28.13 128.86-26.44 126.1-24.76 124.47-21.93 122.83-19.1 122.83-15.63L122.83-15.63Q122.83-12.19 124.47-9.34 126.1-6.49 128.86-4.81 131.62-3.13 135.06-3.13Z" opacity="1" transform="matrix(1,0,0,1,0,0)" fill="black" class="wordmark-text-0" id="SvgjsPath2788"></path></svg></g></svg></g></svg></g></svg></g><g transform="matrix(1,0,0,1,0,4.532806315116773)"><svg viewBox="0 0 129.71921861693485 106.17522588968458" height="106.17522588968458" width="129.71921861693485"><g><svg xmlns="http://www.w3.org/2000/svg" xmlns:xlink="http://www.w3.org/1999/xlink" version="1.1" x="0" y="0" viewBox="-10.131999999999998 16.544000000000004 84.19300000000001 68.912" enable-background="new -17.283 10 100 80" xml:space="preserve" height="106.17522588968458" width="129.71921861693485" class="icon-icon-0" data-fill-palette-color="accent" id="SvgjsSvg2787"><g fill="white"><g fill="white"><path d="M62.832 26.509c-4.601-0.361-9.748 0.38-14.739-0.144 0.476-5.415-1.018-8.883-5.054-9.821-8.038 0-16.087 0-24.13 0-4.106 0.898-5.563 4.457-5.059 9.965-0.563 0-1.112 0-1.68 0-0.262-3.108-3.982-4.828-7.574-3.79-1.541 0.435-2.693 2.011-2.667 3.79-7.071 0.464-10.697 4.367-12.061 10.528 0 9.348 0 18.715 0 28.063 1.043 5.633 5.049 9.923 10.509 10.534 5.158 0.573 12.475 0 18.103 0 2.139 0 4.703-0.444 6.19 0 1.141 0.326 2.173 2.353 3.503 3.497 3.996 3.499 8.764 5.525 14.866 6.325 1.453 0 2.91 0 4.362 0 5.989-0.879 10.687-2.757 14.585-6.167 1.518-1.333 2.564-3.369 4.072-4.366 0.982-0.643 1.941-0.93 2.806-1.542 2.645-1.878 4.595-4.388 5.197-8.281 0-9.348 0-18.715 0-28.063C72.738 31.297 69.304 26.998 62.832 26.509zM19.61 62.581c-1.374-2.322-2.416-4.851-2.52-8.142-0.41-10.939 7.437-17.748 17.678-18.528 0.099 0 0.183 0 0.276 0C25.97 40.783 18.676 48.164 19.61 62.581zM66.059 68.046C62.56 76.8 52.654 84.637 39.823 81.524c-9.595-2.332-18.331-11.265-16.986-24.003 0.667-6.254 3.36-10.573 6.729-13.893 3.247-3.162 8.162-5.801 14.601-6.176 10.775-0.633 18.448 5.781 21.62 13.34C67.946 55.94 68.252 62.591 66.059 68.046zM70.001 45.881c-0.673 0.208-1.452-0.781-2.401-1.265-0.73-0.375-1.582-0.692-2.382-0.84-4.544-5.672-11.856-10.435-22.179-9.684-0.968 0.069-2.011 0.563-3.077 0.554-1.216-0.02-2.456-0.612-3.52-0.702-9.011-0.692-14.713 4.101-18.516 9.269-5.243 0.247-11.528-0.336-16.567 0-3.325 0.227-5.529 1.67-7.426 2.806-0.653-8.113 0.227-14.723 7.158-15.435 4.749-0.494 11.072 0.366 16.701 0 0.924-2.821-1.369-9.229 1.674-9.97 1.63-0.396 4.195 0 6.309 0 4.255 0 7.758 0 12.348 0 1.853 0 4.853-0.232 5.47 0.702 1.339 1.996-0.4 6.344 0.296 9.12 6.019 0.643 13.384-0.36 18.8 0.148C69.582 31.218 70.688 37.552 70.001 45.881z" fill="white"></path><path d="M36.027 30.437c-1.54 0.514-8.72 0.543-10.252 0-2.342-0.83-2.48-5 0.436-5.75 1.562-0.405 7.954-0.613 9.816 0C38.593 25.526 38.727 29.542 36.027 30.437z" fill="white"></path><path d="M58.197 45.309c-3.354-2.974-8.469-5.435-14.604-4.901-6.804 0.573-11.576 4.021-14.586 8.547-2.81 4.258-4.658 11.828-1.966 18.251 2.693 6.413 8.934 12.084 18.112 12.084 9.98 0 18.8-7.519 19.497-18.261C65.134 53.787 61.858 48.56 58.197 45.309zM45.013 53.161c-6.896 0-12.209 2.691-15.976 5.254 0.93-7.782 6.026-14.968 16.077-14.968 0.494 0 0.996 0.018 1.511 0.054 8.247 0.601 13.939 6.66 14.704 15.348C58.853 56.918 53.018 53.173 45.013 53.161z" fill="white"></path><path d="M36.027 24.686c-1.862-0.613-8.255-0.405-9.816 0-2.916 0.751-2.777 4.921-0.436 5.75 1.532 0.543 8.712 0.514 10.252 0C38.727 29.542 38.593 25.526 36.027 24.686z" fill="white"></path></g></g></svg></g></svg></g></svg></g><defs><mask></mask></defs></svg><rect width="395.52" height="84.39814170846758" fill="black" stroke="none" visibility="hidden"></rect></g></mask><linearGradient x1="0.054" x2="0.941" y1="0.5" y2="0.5" id="5df350ae-8e30-482a-a574-0f0da2cdc98c"><stop stop-color="#26282a" offset="0"></stop><stop stop-color="#9e9fa0" offset="0.498"></stop><stop stop-color="#26282a" offset="1"></stop></linearGradient><rect width="395.5200585890508" height="84.39815592730329" fill="url(#5df350ae-8e30-482a-a574-0f0da2cdc98c)" mask="url(#1099db61-29af-4ac2-9c4c-38c3ce31e664)" data-fill-palette-color="accent"></rect></svg><rect width="395.52" height="84.39814170846758" fill="none" stroke="none" visibility="hidden"></rect></g></svg></g></svg>